<?xml version="1.0" standalone="no"?>
<!DOCTYPE svg PUBLIC "-//W3C//DTD SVG 20010904//EN"
 "http://www.w3.org/TR/2001/REC-SVG-20010904/DTD/svg10.dtd">
<svg version="1.0" xmlns="http://www.w3.org/2000/svg"
 width="1588.000000pt" height="2060.000000pt" viewBox="0 0 1588.000000 2060.000000"
 preserveAspectRatio="xMidYMid meet">

<g transform="translate(0.000000,2060.000000) scale(0.100000,-0.100000)"
fill="#000000" stroke="none">
<path d="M6405 20589 c-134 -13 -292 -45 -418 -86 -102 -33 -124 -36 -245 -39
-148 -3 -110 9 -362 -121 -63 -32 -180 -80 -260 -107 -204 -68 -244 -92 -387
-228 -68 -65 -131 -119 -141 -119 -9 -1 -64 -2 -122 -3 -95 -1 -109 -4 -152
-28 -25 -15 -60 -46 -78 -68 -19 -24 -44 -43 -65 -49 -19 -5 -113 -7 -212 -4
-246 8 -323 -14 -447 -124 -70 -63 -99 -75 -193 -82 -45 -4 -87 -11 -93 -17
-5 -5 -14 -48 -19 -95 -9 -95 -26 -131 -71 -149 -39 -16 -88 -6 -169 35 l-66
33 -106 -92 c-58 -50 -233 -201 -390 -336 -319 -275 -484 -431 -528 -497 -39
-58 -45 -104 -25 -178 33 -120 31 -125 -37 -125 -73 0 -105 -46 -312 -445
l-135 -259 -221 -111 c-122 -60 -237 -122 -255 -137 -79 -63 -101 -204 -93
-578 6 -280 18 -411 44 -497 14 -48 14 -58 -1 -119 -24 -95 -122 -368 -159
-443 -55 -111 -81 -120 -352 -121 -164 0 -246 -8 -263 -24 -3 -4 11 -215 32
-469 73 -911 72 -1000 -26 -1592 -34 -210 -39 -344 -24 -690 7 -142 5 -206 -8
-305 -25 -202 -38 -446 -40 -740 -1 -252 1 -284 22 -380 49 -222 114 -367 311
-695 264 -440 323 -609 395 -1130 83 -594 99 -701 121 -784 39 -146 80 -214
213 -353 165 -172 288 -238 446 -238 151 0 225 -63 351 -294 92 -169 139 -235
180 -255 42 -20 218 -19 266 2 l37 15 6 -36 c3 -21 6 -131 6 -247 l0 -210 201
-160 c348 -276 394 -305 542 -342 56 -13 132 -40 168 -59 36 -19 178 -119 315
-222 137 -103 270 -197 295 -210 25 -13 106 -68 180 -123 281 -210 549 -351
838 -443 223 -70 325 -70 468 4 131 68 223 154 348 325 32 44 69 95 82 113
l24 32 31 -21 c16 -12 67 -53 111 -92 100 -86 232 -174 352 -234 192 -97 498
-201 621 -210 69 -6 72 -5 89 20 11 17 30 29 53 33 59 11 90 31 129 85 30 43
39 49 62 45 80 -16 623 -107 716 -120 291 -41 568 -61 993 -72 l264 -7 136
136 137 136 240 -101 c340 -141 337 -140 426 -135 67 3 87 9 175 54 54 27 232
132 394 233 596 370 722 442 798 456 20 4 103 -3 191 -17 192 -28 326 -30 396
-6 62 21 118 64 316 238 85 74 253 218 374 319 280 234 488 422 513 463 25 42
69 176 132 407 61 221 91 288 140 312 19 10 91 24 158 32 141 16 148 20 214
121 43 66 309 589 365 718 65 151 74 189 80 361 l6 158 36 15 c75 31 243 113
271 133 66 47 177 296 385 860 29 80 56 153 60 163 7 16 31 17 303 17 l295 0
-7 68 c-3 37 -13 121 -21 187 -26 218 -47 527 -48 710 -1 152 2 195 20 275 12
52 31 159 43 237 11 78 36 204 55 281 48 195 49 219 26 353 -32 184 -35 298
-16 559 19 256 16 433 -10 585 -19 117 -19 238 1 339 31 150 9 530 -43 756
-23 97 -127 307 -282 567 -192 323 -285 522 -331 715 -11 46 -33 184 -50 308
-57 434 -114 799 -146 942 -20 86 -68 153 -218 302 -180 179 -237 209 -430
225 -60 5 -105 15 -132 29 -64 33 -133 117 -213 263 -103 184 -131 225 -182
258 -75 50 -244 206 -277 256 -18 27 -34 66 -37 94 -4 25 -9 59 -12 74 -7 40
-106 142 -253 262 -275 224 -380 287 -506 304 -104 13 -181 58 -429 246 -148
113 -291 213 -411 288 -49 31 -123 85 -163 121 -89 78 -245 168 -446 257 -305
135 -494 194 -606 186 -54 -3 -86 -14 -170 -54 -108 -52 -219 -128 -246 -170
-9 -13 -29 -31 -44 -39 -37 -19 -61 -9 -206 84 -131 84 -236 138 -367 187
-274 102 -654 164 -835 136 -41 -6 -146 -36 -235 -66 -88 -30 -166 -55 -173
-55 -7 0 -50 25 -96 55 -52 34 -102 59 -137 67 -79 19 -1001 18 -1082 0 -32
-7 -84 -31 -120 -54 -81 -53 -132 -60 -174 -25 -16 14 -36 36 -43 50 -7 14
-24 30 -38 36 -27 12 -154 12 -288 0z m2300 -768 c442 -35 704 -80 749 -130
15 -17 18 -61 26 -412 5 -217 11 -631 14 -921 l5 -528 -57 -1 c-31 -1 -70 -4
-87 -8 -36 -8 -48 -4 170 -65 727 -204 1292 -487 1875 -942 96 -75 199 -150
228 -166 59 -34 82 -60 215 -238 51 -69 136 -178 190 -243 l97 -118 -92 -80
c-114 -98 -159 -123 -206 -115 -50 8 -110 51 -357 261 -121 103 -229 191 -239
197 -41 22 26 -54 382 -430 l133 -140 -128 -100 c-70 -54 -154 -116 -186 -137
l-58 -39 -35 19 c-19 10 -94 67 -167 127 -137 113 -176 141 -161 116 4 -7 54
-67 109 -133 56 -66 114 -138 129 -159 l27 -40 -33 -34 c-18 -19 -69 -61 -112
-95 l-80 -61 -89 100 c-138 152 -306 314 -425 409 -360 289 -789 513 -1232
643 -246 73 -248 66 -10 -30 543 -217 1068 -607 1401 -1038 88 -114 159 -216
159 -226 -1 -5 -38 -39 -83 -75 -45 -37 -108 -88 -139 -114 l-58 -47 -167 163
c-348 338 -566 501 -889 662 -299 150 -623 255 -948 307 -213 34 -530 50 -646
32 -36 -6 -15 -10 111 -20 278 -22 501 -66 745 -147 553 -184 1077 -542 1456
-995 86 -103 112 -144 104 -165 -10 -26 -54 -48 -83 -40 -16 4 -109 88 -237
214 -116 114 -254 241 -306 283 -375 299 -867 505 -1370 574 -156 22 -527 25
-685 5 -258 -31 -529 -96 -689 -167 -196 -85 -555 -296 -730 -429 -166 -124
-346 -327 -515 -580 -118 -178 -268 -479 -223 -452 5 4 43 55 83 114 272 403
521 660 854 879 411 270 950 471 1315 491 262 14 760 -60 1050 -157 405 -134
882 -417 1225 -727 61 -55 116 -107 123 -116 12 -14 6 -26 -48 -89 -72 -85
-93 -122 -85 -148 9 -28 92 -100 115 -100 11 0 62 16 113 36 51 19 101 33 113
30 11 -3 54 -49 94 -101 40 -53 74 -94 76 -92 2 2 -12 48 -31 103 -48 137 -45
194 12 194 87 0 247 -324 332 -672 64 -264 91 -629 72 -987 -23 -443 -68 -665
-208 -1016 -157 -395 -364 -719 -732 -1149 -51 -58 -90 -106 -87 -106 10 0
256 197 335 269 488 441 859 1140 958 1806 27 178 26 846 -1 1020 -41 272
-102 448 -269 782 l-106 212 32 19 c52 32 231 128 249 135 24 8 47 -27 118
-176 235 -496 351 -981 380 -1587 11 -239 1 -486 -30 -733 -27 -209 -24 -254
9 -137 37 133 89 383 108 520 22 160 25 794 5 995 -43 416 -115 687 -321 1202
l-20 52 87 50 c94 55 120 61 144 34 63 -72 214 -502 311 -888 55 -216 73 -314
87 -460 13 -144 13 -963 0 -1130 -20 -251 -71 -496 -165 -795 -127 -407 -350
-878 -588 -1244 -40 -61 -77 -118 -82 -126 -10 -17 112 112 200 210 510 574
819 1297 922 2158 22 186 26 836 5 1002 -53 430 -123 695 -318 1197 -52 133
-94 249 -94 257 0 18 181 112 201 104 9 -3 45 -64 81 -134 249 -486 389 -959
455 -1536 22 -191 25 -817 5 -998 -61 -553 -169 -974 -363 -1423 -154 -357
-371 -733 -608 -1055 -113 -155 -124 -178 -44 -96 89 90 251 284 366 439 345
462 612 977 796 1535 96 292 141 500 162 746 15 188 7 721 -15 904 -74 622
-225 1150 -470 1650 -31 63 -55 124 -54 135 2 12 23 30 59 48 46 23 61 27 77
18 38 -20 213 -391 317 -670 277 -746 376 -1583 279 -2351 -72 -571 -256
-1155 -512 -1625 -78 -144 -129 -229 -238 -396 -109 -168 -117 -184 -69 -139
134 126 389 472 560 760 91 154 223 419 278 560 288 738 367 1625 221 2495
-78 468 -199 859 -414 1345 -90 204 -92 216 -45 269 54 59 74 55 123 -23 55
-86 192 -348 279 -531 372 -786 524 -1650 485 -2759 -7 -189 -21 -407 -33
-509 -11 -98 -18 -184 -16 -190 14 -41 181 611 202 788 27 234 40 743 27 1048
-32 723 -190 1352 -485 1927 -55 107 -125 243 -155 301 -61 118 -61 132 1 169
49 30 70 25 104 -22 81 -113 279 -513 407 -822 159 -380 273 -830 323 -1276
14 -125 18 -242 18 -600 0 -429 -6 -565 -41 -1015 -63 -809 -217 -1441 -533
-2190 -44 -105 -83 -203 -87 -220 -7 -28 -6 -29 11 -15 83 68 355 604 537
1059 212 531 355 1121 413 1704 51 518 31 1330 -46 1867 -77 534 -210 940
-505 1539 -74 151 -133 275 -131 277 11 12 165 65 201 70 l46 7 79 -164 c174
-359 369 -865 497 -1288 140 -467 214 -841 256 -1301 18 -196 18 -1129 0
-1330 -98 -1112 -489 -2194 -1152 -3186 -369 -550 -762 -990 -1319 -1473
l-223 -193 -62 43 c-93 65 -136 102 -136 119 0 19 104 121 265 260 152 132
486 466 634 635 226 258 413 503 566 740 87 136 87 136 -61 -35 -423 -486
-1483 -1440 -1601 -1440 -42 0 -131 53 -356 213 -54 38 -95 73 -90 77 4 4 71
51 148 105 166 117 249 183 410 326 152 135 429 418 518 529 114 142 366 530
443 681 38 76 46 99 30 93 -14 -6 -57 -55 -163 -191 -163 -210 -485 -544 -743
-773 -247 -220 -592 -481 -730 -554 -94 -49 -145 -61 -176 -41 -13 8 -24 23
-24 33 0 10 -7 28 -16 40 -32 45 -141 18 -202 -52 -40 -46 -41 -79 -7 -171 14
-37 24 -69 23 -70 -2 -2 -115 -59 -253 -128 -445 -222 -784 -365 -1310 -554
-115 -41 -226 -83 -245 -94 l-35 -18 37 -1 c75 0 515 93 777 166 285 79 543
174 916 338 83 37 159 65 170 64 14 -2 30 -24 52 -68 30 -63 143 -370 143
-390 0 -13 -414 -219 -616 -308 -774 -339 -1531 -527 -2677 -663 -111 -13
-183 -26 -175 -30 18 -12 590 -11 788 1 644 40 1226 160 1802 374 219 81 307
118 598 248 129 58 259 113 289 122 76 22 93 10 126 -94 14 -45 25 -89 25 -99
0 -31 -479 -256 -805 -379 -591 -222 -1258 -383 -1835 -443 -161 -16 -933 -23
-1159 -10 -398 23 -998 124 -1051 177 -19 18 -25 240 -35 1183 l-8 694 84 -7
c46 -4 82 -6 79 -3 -3 3 -57 19 -120 37 -490 136 -1027 359 -1387 576 -254
153 -715 490 -848 620 -104 102 -439 519 -429 535 10 16 64 64 178 158 87 72
101 80 115 68 60 -53 492 -407 518 -425 18 -13 33 -20 33 -15 0 8 -125 145
-348 381 l-133 140 78 60 c181 137 306 222 317 213 6 -4 74 -60 151 -122 161
-131 205 -164 205 -152 0 4 -50 67 -111 138 -61 72 -123 147 -137 168 l-25 38
29 31 c16 17 65 59 109 94 l80 64 44 -47 c122 -132 337 -345 421 -418 303
-263 674 -477 1060 -613 131 -46 291 -94 297 -89 8 9 -32 30 -205 111 -212 98
-343 170 -497 274 -245 165 -507 403 -707 642 -95 114 -217 278 -218 292 0 4
64 57 142 117 l141 109 199 -189 c235 -222 362 -327 553 -454 310 -206 611
-342 950 -429 273 -69 511 -96 835 -95 224 1 217 6 -55 34 -191 20 -405 56
-535 91 -197 53 -547 206 -785 344 -258 148 -385 251 -676 546 -218 222 -275
293 -260 322 11 21 32 32 58 32 28 0 137 -86 283 -225 246 -234 393 -351 603
-476 271 -163 645 -301 932 -343 365 -54 872 -42 1185 28 402 91 885 379 1250
745 203 203 324 368 447 608 96 188 83 203 -33 37 -184 -265 -438 -526 -724
-744 -353 -269 -954 -510 -1373 -549 -248 -24 -729 37 -1032 130 -303 93 -717
309 -1010 527 -111 83 -198 156 -314 262 l-90 83 48 56 c58 67 91 119 91 145
0 30 -43 97 -72 112 -42 22 -74 17 -171 -27 l-91 -41 -19 24 c-70 88 -152 178
-155 170 -1 -5 15 -51 38 -101 49 -113 51 -135 8 -161 -44 -27 -61 -25 -96 9
-119 120 -271 663 -311 1118 -48 536 76 1164 344 1744 166 361 365 659 648
972 59 65 107 120 107 122 0 3 -51 -34 -112 -82 -138 -108 -444 -411 -556
-551 -358 -448 -609 -986 -707 -1513 -48 -261 -69 -686 -46 -935 30 -312 112
-621 247 -930 72 -165 74 -176 37 -201 -36 -26 -174 -95 -179 -90 -13 13 -134
316 -174 437 -126 378 -179 687 -187 1101 -13 619 87 1114 371 1842 54 137 96
251 93 253 -7 7 -206 -302 -276 -431 -224 -412 -367 -878 -422 -1375 -19 -168
-16 -554 5 -730 31 -262 99 -559 179 -781 29 -79 169 -417 184 -442 5 -9 -174
-97 -199 -97 -25 0 -61 59 -119 196 -150 354 -249 741 -294 1154 -22 198 -31
700 -16 920 29 418 95 804 191 1105 105 328 337 800 560 1137 l101 153 -158
-160 c-275 -277 -466 -552 -658 -948 -210 -433 -296 -798 -341 -1442 -20 -298
-15 -792 10 -985 52 -400 131 -660 335 -1104 51 -109 90 -205 87 -212 -6 -16
-52 -40 -124 -65 -78 -27 -88 -25 -116 24 -56 96 -242 609 -310 852 -107 384
-165 900 -151 1335 27 832 80 1192 254 1710 141 418 328 802 571 1165 92 138
92 141 5 50 -294 -310 -481 -565 -630 -865 -176 -351 -294 -718 -419 -1295
-86 -399 -90 -441 -90 -935 -1 -291 3 -476 12 -560 54 -516 142 -813 416
-1408 110 -238 116 -255 99 -267 -27 -20 -174 -98 -177 -94 -13 17 -249 531
-295 642 -251 609 -414 1236 -476 1832 -22 217 -41 302 -62 281 -12 -12 -8
-529 6 -761 30 -509 61 -702 167 -1052 81 -268 159 -460 331 -816 110 -226
114 -239 97 -252 -11 -8 -68 -39 -127 -70 l-108 -57 -110 227 c-478 985 -616
1556 -694 2890 -23 392 -40 500 -64 409 -48 -187 -57 -862 -17 -1254 77 -735
260 -1408 561 -2060 130 -280 138 -301 120 -320 -9 -10 -69 -45 -134 -79 -115
-59 -119 -60 -135 -42 -67 74 -267 687 -406 1241 -124 498 -182 846 -227 1370
-25 289 -25 1096 0 1390 64 757 167 1292 373 1924 36 109 63 201 60 203 -17
17 -235 -522 -359 -887 -295 -870 -439 -1750 -441 -2685 0 -307 10 -463 45
-710 91 -635 335 -1337 642 -1844 66 -108 85 -147 75 -153 -43 -28 -185 -111
-251 -146 l-77 -41 -94 187 c-416 831 -636 1608 -732 2587 -21 221 -30 831
-15 1066 98 1492 668 2880 1669 4059 235 277 729 751 981 940 l104 79 84 -72
c46 -39 80 -74 76 -77 -5 -4 -66 -53 -138 -110 -235 -186 -787 -756 -1062
-1096 -132 -164 -381 -520 -370 -530 2 -2 65 64 139 148 157 177 580 598 813
808 473 429 741 640 813 640 40 0 402 -256 402 -285 0 -16 -62 -68 -205 -170
-541 -386 -997 -910 -1297 -1491 -43 -83 -78 -155 -78 -159 0 -17 36 25 151
176 167 219 300 368 550 614 363 357 702 642 939 788 92 56 121 68 177 69 56
1 75 -15 71 -61 l-3 -36 51 2 c66 3 158 38 184 70 26 33 25 80 -2 165 -12 37
-20 69 -17 72 2 2 153 78 334 168 462 230 588 284 1095 468 306 111 454 170
447 176 -5 5 -242 -37 -432 -76 -437 -90 -831 -217 -1215 -390 -116 -52 -299
-130 -306 -130 -10 0 -63 123 -116 270 -45 125 -57 169 -50 185 14 29 151 107
372 211 948 443 1677 638 2889 774 151 17 277 33 280 35 9 9 -726 5 -909 -5
-533 -30 -1039 -128 -1585 -307 -314 -103 -560 -203 -897 -364 -113 -54 -215
-99 -225 -99 -10 0 -27 14 -36 30 -20 32 -67 165 -67 186 0 18 64 54 268 149
617 286 1195 482 1652 559 271 46 559 79 825 96 186 11 1183 5 1360 -9z m2010
-553 c809 -338 1725 -1002 2365 -1713 139 -154 390 -457 389 -470 0 -5 -73
-67 -163 -137 l-164 -126 -78 96 c-98 122 -594 618 -774 776 -520 455 -1199
851 -1920 1121 -85 32 -156 59 -158 60 -2 2 54 113 123 248 l126 246 67 -25
c37 -14 121 -48 187 -76z m-417 -570 c843 -327 1716 -934 2322 -1613 147 -164
320 -378 320 -395 0 -25 -530 -438 -623 -487 l-29 -14 -216 222 c-248 253
-388 379 -586 526 -472 350 -1009 606 -1624 773 -162 44 -222 65 -222 78 0 5
25 48 56 96 31 49 131 233 224 411 199 381 236 445 262 445 5 0 58 -19 116
-42z m-6499 -9331 c464 -459 633 -591 1057 -828 350 -195 739 -354 1114 -455
222 -59 261 -83 210 -129 -28 -25 -86 -129 -245 -434 -137 -264 -231 -427
-260 -451 -20 -16 -50 -7 -275 89 -537 228 -1135 593 -1540 941 -382 328 -845
815 -927 975 l-26 49 34 29 c68 58 590 467 597 467 3 0 121 -114 261 -253z
m-1047 -452 c69 -94 315 -350 555 -576 280 -265 330 -309 493 -433 478 -364
1082 -696 1678 -921 83 -32 152 -62 152 -67 0 -19 -251 -508 -261 -508 -26 0
-402 171 -624 284 -526 268 -958 563 -1420 969 -217 191 -545 529 -744 767
-96 115 -201 261 -201 281 0 8 322 271 326 266 1 -1 22 -29 46 -62z"/>
<path d="M9170 17851 c-22 -6 -23 -8 -7 -14 27 -10 65 -9 72 3 3 6 2 10 -4 10
-5 0 -15 2 -23 4 -7 2 -24 1 -38 -3z"/>
<path d="M7720 17814 c-19 -2 -90 -9 -157 -14 -866 -75 -1777 -425 -2478 -953
-338 -254 -592 -473 -572 -493 9 -9 58 22 272 171 341 238 533 352 875 519
731 356 1336 512 2155 556 615 33 1205 -13 1877 -145 152 -30 287 -55 300 -54
64 2 -303 144 -581 224 -289 83 -537 132 -861 171 -127 15 -738 28 -830 18z"/>
<path d="M4451 17310 c-260 -197 -403 -321 -641 -560 -365 -364 -651 -722
-879 -1099 -341 -564 -563 -1257 -641 -2006 -12 -116 -26 -663 -16 -654 3 3
26 118 51 255 55 310 82 434 150 699 244 949 606 1738 1099 2393 211 279 475
568 769 839 100 93 199 185 222 205 22 21 38 37 35 37 -3 0 -70 -49 -149 -109z"/>
<path d="M7820 17113 c-267 -18 -457 -45 -650 -94 -121 -30 -350 -108 -350
-119 0 -4 53 1 118 11 244 38 461 69 567 80 213 21 956 8 1180 -22 314 -41
805 -206 1218 -409 92 -46 170 -80 173 -77 27 26 -461 287 -756 405 -311 123
-649 195 -1055 222 -139 9 -339 11 -445 3z"/>
<path d="M7420 16766 c-503 -53 -998 -195 -1368 -393 -211 -112 -367 -237
-648 -517 -197 -198 -264 -274 -318 -368 -49 -84 -28 -70 174 113 480 436
1027 730 1635 879 329 80 423 89 995 97 468 6 848 -6 1077 -33 224 -26 335
-36 340 -30 25 24 -631 177 -1014 237 -175 27 -674 36 -873 15z"/>
<path d="M7760 15164 c-157 -9 -507 -71 -676 -120 -139 -40 -354 -157 -515
-280 -149 -113 -260 -238 -429 -477 -157 -224 -239 -377 -200 -377 5 0 37 39
71 88 312 442 610 686 1024 840 287 107 504 142 885 142 333 0 533 -28 759
-105 349 -119 621 -280 885 -521 153 -140 256 -227 261 -222 18 17 -136 227
-263 359 -275 287 -707 515 -1173 619 -171 38 -458 63 -629 54z"/>
<path d="M7012 14381 c-111 -32 -209 -92 -364 -220 -255 -213 -545 -580 -628
-793 -50 -129 -63 -233 -63 -493 0 -273 17 -421 68 -588 129 -426 387 -763
756 -987 45 -27 86 -50 91 -50 15 0 -9 35 -91 134 -130 156 -235 327 -356 579
-183 380 -222 556 -212 966 5 231 19 343 57 471 66 222 497 761 754 945 88 63
88 64 -12 36z"/>
<path d="M8675 14374 c11 -9 65 -37 121 -64 235 -113 411 -265 544 -470 284
-439 329 -1140 109 -1693 -99 -248 -202 -411 -350 -552 -193 -185 -399 -283
-781 -374 -98 -24 -178 -47 -178 -53 0 -14 78 -4 260 32 449 90 754 235 996
475 186 185 308 407 378 690 45 183 65 480 47 700 -21 249 -63 406 -167 624
-188 395 -429 581 -881 681 -110 24 -125 24 -98 4z"/>
<path d="M7613 14209 c-71 -12 -170 -50 -279 -108 -530 -279 -818 -775 -773
-1333 27 -342 167 -631 421 -874 258 -245 573 -374 917 -374 368 0 705 142
971 410 124 124 192 220 265 372 202 424 158 917 -117 1329 -80 120 -254 295
-373 376 -107 72 -245 143 -352 180 -77 27 -83 27 -353 29 -151 2 -298 -2
-327 -7z"/>
<path d="M10060 14173 c0 -10 29 -79 65 -153 110 -231 163 -429 200 -745 20
-167 23 -538 6 -700 -16 -150 -54 -334 -91 -440 -17 -48 -28 -90 -25 -94 22
-21 111 180 198 444 91 278 117 443 117 748 0 208 -7 248 -72 396 -113 257
-398 647 -398 544z"/>
<path d="M5636 13768 c-197 -278 -268 -453 -316 -783 -24 -166 -25 -268 -5
-390 56 -347 286 -845 390 -845 39 0 32 40 -36 217 -34 87 -70 199 -80 248
-25 123 -46 335 -60 611 -18 360 4 533 100 788 48 127 73 216 61 216 -5 0 -29
-28 -54 -62z"/>
<path d="M9868 11813 c-14 -16 -61 -77 -103 -138 -146 -206 -254 -321 -432
-458 -293 -225 -729 -392 -1138 -437 -130 -14 -413 -14 -540 0 -287 32 -581
122 -860 263 -292 147 -506 310 -710 540 -52 59 -95 104 -95 100 0 -13 102
-197 143 -257 210 -312 808 -668 1332 -792 192 -45 627 -45 939 2 310 46 547
133 776 286 189 125 401 361 610 678 113 172 161 301 78 213z"/>
<path d="M13345 11527 c-124 -550 -155 -656 -252 -854 -87 -181 -476 -810
-663 -1073 -244 -344 -490 -613 -915 -1000 -137 -125 -259 -238 -270 -250 -51
-60 318 224 525 404 535 465 1035 1104 1315 1681 131 271 246 574 279 735 8
41 20 116 25 165 11 92 33 486 28 492 -2 1 -34 -133 -72 -300z"/>
<path d="M10710 10274 c-30 -27 -100 -90 -155 -139 -464 -420 -959 -690 -1540
-838 -383 -98 -655 -127 -1201 -127 -382 0 -595 10 -919 45 -367 39 -369 39
-361 27 19 -31 479 -147 861 -217 258 -48 787 -57 1127 -19 663 72 1248 302
1698 666 112 90 292 271 377 380 79 100 175 246 171 259 -2 6 -28 -11 -58 -37z"/>
<path d="M11214 9337 c-43 -28 -152 -103 -242 -166 -663 -462 -1412 -782
-2182 -930 -312 -60 -516 -81 -864 -90 -671 -17 -1237 34 -1827 162 -112 25
-224 48 -249 51 -42 6 -44 6 -26 -8 50 -40 535 -211 755 -266 174 -44 500
-107 626 -122 148 -17 907 -17 1105 0 401 35 638 83 1010 204 725 235 1373
617 1889 1113 53 51 93 96 90 99 -3 3 -41 -18 -85 -47z"/>
<path d="M5763 9257 c77 -60 512 -292 652 -348 339 -135 723 -228 1065 -259
279 -25 674 -8 958 40 236 41 696 170 630 178 -14 2 -151 -17 -305 -42 -336
-54 -424 -64 -706 -75 -381 -17 -784 12 -1062 74 -355 80 -770 226 -1115 394
-131 64 -164 74 -117 38z"/>
<path d="M6653 7962 c-36 -5 -27 -22 12 -22 19 0 35 4 35 9 0 12 -20 18 -47
13z"/>
<path d="M200 4269 c-78 -13 -160 -57 -184 -98 -18 -31 -19 -39 -7 -108 37
-221 272 -985 351 -1143 54 -108 76 -114 370 -114 164 0 236 3 264 13 48 17
131 92 157 142 l18 37 -35 128 c-115 420 -271 903 -328 1018 -37 73 -46 83
-91 106 -48 24 -58 25 -255 27 -113 1 -230 -3 -260 -8z"/>
<path d="M2660 4269 c-97 -17 -82 11 -247 -449 -253 -703 -980 -2856 -1138
-3369 -85 -277 -86 -282 -43 -346 23 -35 48 -57 83 -75 45 -22 63 -24 225 -28
210 -5 411 11 454 36 58 34 76 83 387 1052 394 1225 535 1650 549 1650 18 0
149 -383 589 -1725 156 -475 267 -787 316 -888 52 -108 110 -127 390 -127 188
0 285 11 340 37 43 21 64 62 145 288 132 366 723 2243 1096 3478 98 325 97
308 18 390 -79 83 -74 82 -374 82 -299 0 -318 -4 -366 -74 -31 -46 -113 -296
-380 -1166 -360 -1172 -469 -1504 -485 -1488 -11 11 -122 346 -398 1203 -310
963 -418 1279 -485 1422 -22 47 -35 60 -74 80 -45 22 -58 23 -297 25 -137 1
-275 -3 -305 -8z"/>
<path d="M9005 4254 c-53 -19 -83 -50 -97 -98 -7 -26 -12 -139 -12 -313 -1
-271 -1 -271 22 -296 31 -33 123 -73 235 -103 275 -73 503 -261 656 -539 18
-33 51 -83 72 -112 54 -72 76 -77 329 -77 318 1 403 22 442 111 25 57 18 114
-29 243 -46 124 -109 246 -193 372 -262 395 -677 672 -1195 799 -132 32 -171
34 -230 13z"/>
<path d="M13240 4244 c-331 -85 -522 -169 -740 -324 -387 -276 -689 -705 -799
-1136 -79 -308 -98 -764 -45 -1074 37 -218 128 -485 220 -644 75 -130 178
-261 329 -415 164 -168 282 -270 417 -358 295 -194 702 -304 848 -230 25 12
53 36 63 54 26 45 39 192 35 378 -6 256 -24 280 -281 379 -220 85 -336 156
-467 286 -166 165 -298 406 -344 630 -53 259 -43 583 25 815 86 291 329 588
603 736 41 22 131 60 201 85 160 56 180 66 210 112 43 65 58 157 59 357 1 207
-6 236 -67 302 -75 81 -110 87 -267 47z"/>
<path d="M14034 4241 c-37 -23 -67 -63 -83 -113 -32 -99 -30 -421 3 -516 38
-107 57 -121 239 -186 221 -78 357 -164 510 -326 181 -190 286 -397 333 -655
22 -122 25 -438 6 -560 -33 -206 -98 -372 -215 -547 -146 -220 -317 -349 -611
-463 -190 -73 -227 -99 -262 -180 -38 -86 -28 -507 13 -578 70 -123 343 -97
708 65 245 109 499 312 730 581 178 206 266 359 346 598 88 264 123 488 123
799 1 303 -28 498 -109 745 -214 654 -795 1176 -1477 1329 -139 31 -211 33
-254 7z"/>
<path d="M8196 4223 c-532 -113 -1018 -515 -1281 -1058 -104 -213 -160 -396
-192 -625 -24 -177 -24 -644 0 -820 74 -527 357 -1022 768 -1339 252 -195 594
-342 800 -344 126 -1 171 38 194 169 20 112 29 354 17 449 -10 76 -12 82 -52
117 -23 21 -106 70 -184 109 -184 93 -291 165 -385 258 -173 172 -282 397
-338 701 -27 147 -25 480 5 616 97 450 340 771 702 930 55 24 107 44 115 44
29 0 93 70 109 118 40 121 40 460 1 573 -39 110 -116 138 -279 102z"/>
<path d="M9955 1525 c-52 -18 -97 -69 -178 -202 -102 -168 -197 -268 -340
-360 -85 -55 -158 -89 -312 -143 -66 -23 -139 -53 -162 -66 -66 -38 -78 -89
-78 -334 0 -305 25 -380 138 -411 51 -14 153 -1 300 36 487 124 939 478 1192
931 90 163 155 320 155 377 0 84 -55 161 -127 178 -65 15 -541 10 -588 -6z"/>
</g>
</svg>
