<svg xmlns="http://www.w3.org/2000/svg" width="512" height="512" viewBox="0 0 512 512" version="1.1"><path d="" stroke="none" fill="#084c74" fill-rule="evenodd"/><path d="M 208 58.552 C 205.525 59.332, 202.250 59.976, 200.721 59.985 C 199.193 59.993, 195.368 61.285, 192.221 62.856 C 189.075 64.427, 185.236 66.017, 183.691 66.390 C 182.146 66.763, 178.946 68.853, 176.579 71.034 C 173.557 73.820, 171.383 75, 169.273 75 C 167.621 75, 165.126 75.900, 163.727 77 C 161.831 78.492, 159.670 79, 155.227 79 C 150.703 79, 148.632 79.502, 146.619 81.085 C 145.161 82.232, 142.429 83.595, 140.548 84.114 C 137.860 84.857, 137.060 85.642, 136.814 87.779 C 136.530 90.239, 136.113 90.500, 132.462 90.500 C 128.752 90.500, 127.484 91.340, 116.825 100.854 C 104.416 111.932, 102.468 114.437, 103.216 118.351 C 103.562 120.158, 103.202 120.975, 101.912 121.313 C 100.880 121.583, 98.210 125.603, 95.562 130.877 C 91.173 139.615, 90.757 140.094, 85.034 142.983 C 78.276 146.394, 77.504 147.474, 76.700 154.628 C 75.609 164.332, 75.056 164.002, 92.367 163.987 L 107.500 163.974 112.500 156.283 C 120.142 144.528, 128.705 134.398, 140.036 123.709 C 149.426 114.851, 150.483 114.127, 152.011 115.510 C 153.551 116.903, 152.741 117.982, 142.060 128.763 C 131.626 139.295, 115 159.817, 115 162.164 C 115 162.666, 121.863 156.152, 130.250 147.690 C 146.862 130.929, 157.149 121.992, 159.802 122.015 C 160.736 122.023, 163.258 123.517, 165.407 125.335 L 169.314 128.641 163.407 133.189 C 156.013 138.881, 144.306 151.144, 139.565 158.164 C 136.387 162.871, 136.179 163.535, 137.807 163.797 C 139.031 163.994, 143.204 160.572, 150.191 153.645 C 155.987 147.898, 163.539 141.127, 166.974 138.598 C 172.876 134.253, 177 132.773, 177 135 C 177 136.692, 180.893 136.107, 182.884 134.116 C 184.080 132.920, 184.597 131.341, 184.300 129.789 C 183.871 127.546, 184.766 126.886, 195.224 121.742 C 201.490 118.660, 211.540 114.273, 217.558 111.993 C 233.946 105.784, 234.162 104.400, 218.187 107.958 C 208.119 110.201, 193.751 115.088, 186.628 118.692 C 183.949 120.048, 181.421 120.784, 181.011 120.328 C 180.601 119.873, 179.559 117.365, 178.695 114.755 L 177.125 110.011 181.313 107.578 C 198.998 97.300, 232.811 87.194, 255.645 85.362 C 269.068 84.285, 267.340 83.063, 252.349 83.030 C 228.378 82.979, 207.751 87.705, 184.097 98.668 C 178.925 101.065, 174.547 102.880, 174.368 102.701 C 174.189 102.523, 173.921 101.284, 173.772 99.949 C 173.532 97.805, 174.532 97.024, 182.355 93.247 C 194.421 87.422, 212.443 81.500, 224.500 79.398 C 243.445 76.095, 292.290 77.479, 293.500 81.352 C 293.697 81.984, 294.045 92.778, 294.275 105.339 C 294.684 127.782, 294.655 128.193, 292.596 129.026 C 291.443 129.492, 290.725 129.904, 291 129.941 C 291.275 129.978, 296.583 131.771, 302.796 133.924 C 317.074 138.874, 329.857 145.942, 342.832 156.061 C 349.794 161.491, 353.861 164, 355.701 164 L 358.392 164 354.946 160.368 C 345.272 150.172, 325.998 138.737, 309 133.107 C 304.325 131.559, 300.511 129.889, 300.524 129.396 C 300.560 128.019, 311.936 106, 312.611 106 C 314.041 106, 330.119 114.053, 336.500 117.965 C 350.470 126.530, 367.775 141.813, 377.824 154.460 L 380.971 158.421 378.298 161.210 L 375.626 164 405.813 164 C 425.403 164, 436 163.647, 436 162.993 C 436 162.440, 435.317 157.439, 434.482 151.882 C 433.151 143.019, 432.560 141.304, 429.676 137.934 C 424.876 132.327, 421.884 130.253, 417.447 129.456 C 412.655 128.595, 410.416 126.752, 407.779 121.500 C 406.675 119.300, 403.573 115.553, 400.886 113.172 C 397.817 110.455, 396 108.023, 396 106.635 C 396 102.676, 382.471 91.002, 375.778 89.187 C 373.731 88.631, 369.456 86.179, 366.278 83.736 C 346.493 68.533, 341.917 65.765, 329.717 61.624 C 325.369 60.149, 324.594 60.143, 321.217 61.554 C 319.172 62.407, 316.340 64.217, 314.922 65.576 L 312.343 68.045 305.422 64.059 C 293.731 57.325, 281.320 55.309, 271.714 58.582 C 267.481 60.024, 266.873 60.024, 264.813 58.582 C 261.582 56.319, 234.042 56.271, 230.606 58.523 C 228.525 59.886, 228.150 59.886, 227.019 58.523 C 225.385 56.554, 214.287 56.571, 208 58.552 M 316.661 95.618 C 315.145 98.709, 314.039 101.358, 314.202 101.504 C 314.366 101.651, 317.913 103.183, 322.085 104.910 C 341.287 112.857, 356.466 123.357, 373.862 140.726 L 387.224 154.067 390.612 151.482 C 392.475 150.061, 394 148.650, 394 148.346 C 394 147.210, 380.912 132.262, 374.329 125.878 C 361.367 113.309, 346.344 102.498, 332.042 95.447 C 319.176 89.103, 319.860 89.096, 316.661 95.618 M 237.500 130.540 C 216.250 134.512, 197.506 143.393, 179.679 157.936 C 170.768 165.205, 173.335 165.878, 183.731 158.998 C 197.293 150.024, 217.676 141.204, 232.132 138.054 C 247.288 134.751, 278.807 135.004, 295.437 138.562 C 299.322 139.393, 303.738 140.338, 305.250 140.662 C 310.224 141.726, 308.181 139.212, 302.250 136.971 C 288.323 131.708, 278.200 129.835, 261.500 129.432 C 250.080 129.156, 243.210 129.473, 237.500 130.540 M 165.865 144.132 C 162.364 147.012, 156.384 152.548, 152.575 156.434 C 146.573 162.557, 145.936 163.542, 147.797 163.816 C 149.286 164.035, 150.926 162.961, 153.139 160.316 C 154.896 158.217, 160.138 152.767, 164.788 148.204 C 169.438 143.642, 173.014 139.681, 172.736 139.402 C 172.457 139.124, 169.365 141.252, 165.865 144.132 M 244 147.940 C 236.593 149.323, 228 152.078, 228 153.071 C 228 154.241, 227.291 154.285, 238.761 152.395 C 245.931 151.213, 252.194 150.931, 262.500 151.325 C 277.890 151.914, 286.509 153.998, 300.891 160.605 C 304.956 162.472, 308.695 164, 309.200 164 C 314.143 164, 291.959 152.823, 281.345 149.966 C 272.639 147.622, 251.771 146.490, 244 147.940 M 232.373 157.999 C 227.353 159.087, 221.278 160.885, 218.873 161.995 L 214.500 164.012 227.500 163.526 C 234.650 163.258, 245.977 162.745, 252.672 162.386 C 259.867 161.999, 270.030 162.220, 277.530 162.925 C 289.122 164.015, 292.244 163.910, 290.814 162.481 C 290.529 162.196, 285.391 160.806, 279.398 159.393 C 264.164 155.802, 245.109 155.237, 232.373 157.999 M 27.108 197.637 C 23.980 199.828, 24.471 203.828, 29.956 220.864 C 35.616 238.442, 35.670 238.500, 46.307 238.500 C 53.379 238.500, 55.157 238.168, 56.994 236.506 C 58.726 234.938, 59.094 233.739, 58.714 230.901 C 57.912 224.922, 49.931 201.182, 47.822 198.501 C 46.009 196.196, 45.212 196, 37.650 196 C 31.670 196, 28.811 196.444, 27.108 197.637 M 100.378 196.765 C 97.999 198.322, 60 307.310, 60 312.574 C 60 316.818, 62.892 318, 73.272 318 C 82.041 318, 83.022 317.807, 84.426 315.802 C 85.273 314.594, 91.420 297.240, 98.087 277.240 C 104.754 257.239, 110.405 241.071, 110.645 241.311 C 110.885 241.551, 116.640 258.029, 123.434 277.928 C 130.228 297.827, 136.580 314.983, 137.549 316.054 C 140.037 318.803, 156.827 318.955, 159.273 316.250 C 161.235 314.080, 167.630 295.392, 182.969 247 C 199.116 196.056, 197.778 201.457, 194.988 198.487 C 192.844 196.205, 191.930 196, 183.898 196 C 175.918 196, 174.983 196.206, 173.309 198.335 C 172.299 199.619, 166.327 216.945, 160.038 236.836 C 153.749 256.728, 148.294 272.665, 147.916 272.252 C 147.538 271.838, 142.656 257.602, 137.067 240.615 C 126.063 207.167, 122.660 198.037, 120.740 196.818 C 119.174 195.823, 101.885 195.779, 100.378 196.765 M 286.066 197.750 C 284.103 199.344, 283.937 200.300, 284.205 208.465 C 284.536 218.522, 284.114 217.980, 294.404 221.571 C 300.358 223.649, 306.184 228.721, 310.694 235.750 L 314.061 241 323.096 241 C 328.066 241, 333.002 240.534, 334.066 239.965 C 338.951 237.350, 333.896 223.936, 324.192 213.763 C 317.362 206.602, 309.923 201.967, 299.814 198.574 C 290.754 195.532, 288.932 195.423, 286.066 197.750 M 405.848 198.372 C 395.598 201.406, 388.165 206.074, 380.155 214.507 C 368.380 226.903, 363.826 238.711, 363.767 257 C 363.705 276.017, 368.377 287.434, 381.629 300.646 C 391.725 310.712, 401.336 315.936, 411.218 316.729 C 419.993 317.434, 421 316.340, 421 306.103 C 421 296.933, 419.898 295.412, 410.798 292.019 C 394.822 286.061, 385.633 268.428, 388.821 249.841 C 391.171 236.133, 399.141 226.414, 412.087 221.467 C 420.292 218.331, 421 217.191, 421 207.109 C 421 201.335, 420.662 200.031, 418.686 198.174 C 415.868 195.527, 415.436 195.534, 405.848 198.372 M 433 198 C 431.352 199.648, 431 201.333, 431 207.566 C 431 211.727, 431.443 215.960, 431.985 216.973 C 432.527 217.985, 436.161 220.033, 440.059 221.523 C 448.374 224.700, 456.303 231.776, 459.876 239.210 C 464.550 248.934, 464.597 264.917, 459.979 274.500 C 455.701 283.380, 449.777 288.519, 438.716 292.945 C 435.534 294.219, 432.497 296.072, 431.966 297.064 C 430.678 299.470, 430.729 312.625, 432.035 315.066 C 433.539 317.876, 441.214 317.620, 449.693 314.476 C 461.644 310.045, 476.378 297.021, 482.078 285.848 C 487.687 274.852, 489.700 253.838, 486.460 240.093 C 481.827 220.438, 463.251 202.337, 442.754 197.504 C 434.897 195.652, 435.373 195.627, 433 198 M 258 199.285 C 245.389 203.617, 234.334 213.105, 227.583 225.392 C 221.437 236.577, 220.498 240.844, 220.519 257.500 C 220.536 270.622, 220.829 273.314, 222.857 279 C 228.186 293.939, 238.753 306.298, 251.645 312.669 C 260.817 317.202, 270.177 318.455, 271.766 315.363 C 273.111 312.748, 274.001 303.780, 273.328 299.632 C 272.833 296.585, 272.001 295.752, 266.632 292.931 C 256.837 287.785, 252.469 283.698, 248.800 276.246 C 245.621 269.792, 245.500 269.103, 245.500 257.523 C 245.500 246.594, 245.742 244.984, 248.160 239.825 C 251.880 231.890, 257.827 225.800, 264.996 222.582 C 268.291 221.104, 271.439 219.047, 271.993 218.013 C 272.547 216.978, 273 212.827, 273 208.788 C 273 196.637, 270.436 195.012, 258 199.285 M 311.265 278.161 C 306.382 285.631, 300.361 290.687, 292.997 293.501 C 289.229 294.941, 285.590 296.789, 284.910 297.608 C 283.343 299.497, 283.350 312.917, 284.920 315.850 C 287.491 320.654, 302.031 317.211, 314.558 308.833 C 322.851 303.286, 329.411 295.658, 334.136 286.067 C 337.058 280.137, 337.193 279.434, 335.867 277.067 C 334.488 274.606, 334.006 274.488, 324.229 274.215 L 314.031 273.930 311.265 278.161 M 74.532 347.750 C 74.798 349.262, 75.675 355.112, 76.481 360.748 C 78.190 372.697, 79.279 375.159, 85.317 380.725 C 88.709 383.851, 90.924 385.016, 94.498 385.552 C 98.731 386.187, 99.496 386.726, 102.051 390.879 C 107.487 399.713, 107.801 400, 112.047 400 L 116 400 116.036 406.250 L 116.071 412.500 122.981 418 C 126.782 421.025, 131.976 424.256, 134.524 425.180 C 137.072 426.104, 139.968 427.454, 140.961 428.180 C 141.953 428.906, 147.880 433.273, 154.132 437.885 C 172.503 451.436, 184.769 456.239, 191.767 452.620 C 193.471 451.739, 196.759 448.773, 199.073 446.028 L 203.281 441.038 205.891 443.057 C 211.850 447.667, 216.852 450.519, 222.795 452.695 C 230.647 455.570, 231.888 455.565, 236.184 452.650 L 239.648 450.299 249.574 452.154 C 255.033 453.175, 266.250 454.285, 274.500 454.622 L 289.500 455.234 292.437 452.117 C 294.052 450.403, 295.777 449, 296.269 449 C 296.762 449, 300.267 450.361, 304.058 452.025 C 308.662 454.046, 311.774 454.844, 313.432 454.428 C 314.797 454.085, 322.571 449.580, 330.707 444.417 L 345.500 435.029 353.570 435.648 L 361.640 436.267 375.570 424.042 C 383.232 417.317, 390.260 410.821, 391.190 409.605 C 392.119 408.389, 393.930 403.611, 395.213 398.987 L 397.547 390.580 401.473 389.764 C 403.633 389.315, 406.172 388.250, 407.115 387.396 C 408.058 386.542, 411.118 380.781, 413.915 374.594 C 417.619 366.399, 419 362.116, 419 358.823 C 419 354.522, 419.192 354.217, 422.978 352.510 C 426.368 350.981, 430 347.374, 430 345.535 C 430 345.241, 425.089 345, 419.088 345 L 408.175 345 403.685 352.750 C 401.215 357.012, 396.368 364.325, 392.913 369 C 386.054 378.283, 363.842 401, 361.626 401 C 360.866 401, 359.685 400.325, 359 399.500 C 357.951 398.236, 359.709 395.979, 370.127 385.210 C 380.411 374.580, 394.495 356.914, 395.841 352.956 C 396.029 352.405, 388.154 359.993, 378.341 369.819 C 359.667 388.519, 353.403 393.603, 350.317 392.567 C 349.318 392.232, 346.976 390.691, 345.113 389.143 L 341.726 386.328 347.613 381.751 C 356.826 374.587, 366.365 364.314, 372.915 354.500 C 377.354 347.849, 378.530 345.414, 377.419 345.169 C 376.592 344.986, 374.969 346.111, 373.811 347.669 C 369.859 352.987, 350.501 371.612, 344.044 376.311 C 337.930 380.760, 334 382.203, 334 380 C 334 378.440, 329.389 378.826, 327.998 380.502 C 327.279 381.369, 326.994 383.222, 327.326 384.879 C 327.888 387.690, 327.655 387.869, 316.805 392.958 C 305.418 398.299, 292.388 403.738, 285.750 405.922 C 282.168 407.100, 280.614 409.009, 283.250 408.992 C 283.938 408.988, 289.675 407.700, 296 406.129 C 305.342 403.810, 315.786 400.050, 328.755 394.335 C 329.992 393.790, 332.162 397.814, 333.494 403.120 C 334.088 405.486, 333.508 405.916, 323.312 410.677 C 301.248 420.981, 287.038 425.099, 261.500 428.590 C 254.350 429.568, 248.073 430.735, 247.550 431.184 C 246.177 432.363, 269.456 432.188, 278.678 430.950 C 294.454 428.831, 310.196 423.890, 329.394 415.031 C 336.503 411.750, 337.945 411.934, 337.985 416.122 C 338.016 419.452, 309.103 430.638, 288.553 435.246 C 271.346 439.104, 227.242 438.211, 218.750 433.832 C 217.159 433.011, 217 430.802, 217 409.465 C 217 389.274, 217.209 386, 218.500 386 C 222.202 386, 219.324 384.300, 211.808 382.048 C 193.748 376.636, 171.747 363.394, 159.896 350.805 C 154.998 345.601, 153.888 344.892, 151.073 345.176 L 147.854 345.500 156.833 354.402 C 170.095 367.550, 182.203 374.950, 201.180 381.506 L 211.611 385.109 205.787 396.507 C 202.583 402.776, 199.620 408.117, 199.202 408.375 C 197.916 409.170, 183.624 402.400, 173.928 396.402 C 168.869 393.272, 160.756 387.405, 155.901 383.364 C 147.149 376.080, 131 358.622, 131 356.445 C 131 355.822, 133.700 353.147, 137 350.500 C 140.300 347.853, 143 345.533, 143 345.344 C 143 345.155, 127.486 345, 108.525 345 L 74.050 345 74.532 347.750 M 217.500 346.943 C 222.930 348.884, 224.629 348.664, 221.557 346.418 C 220.491 345.638, 218.016 345.035, 216.059 345.078 L 212.500 345.155 217.500 346.943 M 290 348.232 C 285.325 349.892, 278.125 351.854, 274 352.590 C 264.873 354.221, 242.686 354.385, 230.669 352.911 C 222.778 351.944, 219.778 352.111, 221.113 353.446 C 221.358 353.691, 226.045 355.089, 231.529 356.552 C 256.437 363.199, 287.695 359.566, 305 348.013 L 309.500 345.009 304 345.111 C 300.657 345.173, 295.166 346.398, 290 348.232 M 362.175 351.250 C 359.426 354.688, 352.862 361.726, 347.589 366.890 C 334.897 379.319, 334.781 380.306, 347.188 370.279 C 354.243 364.578, 364.993 353.627, 368.845 348.218 C 371.055 345.114, 371.066 345, 369.154 345 C 367.923 345, 365.280 347.367, 362.175 351.250 M 331.500 354.086 C 304.703 373.852, 271.406 383.018, 237.074 380.080 C 229.608 379.441, 219.059 378.018, 213.630 376.916 C 202.090 374.574, 199.561 374.908, 206.332 377.879 C 221.662 384.606, 238.970 387.529, 258.465 386.685 C 280.232 385.742, 299.083 379.946, 317.286 368.601 C 328.650 361.518, 344.221 347.662, 340.333 348.092 C 339.875 348.143, 335.900 350.840, 331.500 354.086 M 201.251 352.252 C 201.933 354.300, 219.410 362.858, 228.500 365.595 C 236.542 368.017, 239.096 368.306, 252.500 368.320 C 264.846 368.332, 268.909 367.949, 275.464 366.153 C 285.112 363.511, 287.934 361.414, 280.500 362.411 C 262.484 364.828, 257.378 365.181, 248 364.657 C 234.707 363.915, 223.881 361.265, 211.023 355.606 C 205.445 353.151, 201.047 351.642, 201.251 352.252 M 120.662 363.546 L 116.926 366.776 122.792 374.138 C 137.386 392.455, 160.698 411.112, 181.500 421.124 L 191.500 425.937 194.663 419.719 L 197.827 413.500 195.663 412.595 C 168.123 401.079, 150.309 388.547, 129.949 366.364 L 124.399 360.316 120.662 363.546" stroke="none" fill="#044c74" fill-rule="evenodd"/></svg>