<?xml version="1.0" standalone="no"?>
<!DOCTYPE svg PUBLIC "-//W3C//DTD SVG 20010904//EN"
 "http://www.w3.org/TR/2001/REC-SVG-20010904/DTD/svg10.dtd">
<svg version="1.0" xmlns="http://www.w3.org/2000/svg"
 width="4438.000000pt" height="534.000000pt" viewBox="0 0 4438.000000 534.000000"
 preserveAspectRatio="xMidYMid meet">

<g transform="translate(0.000000,534.000000) scale(0.100000,-0.100000)"
fill="#000000" stroke="none">
<path d="M2838 5335 c-3 -3 -131 -10 -285 -15 -303 -9 -335 -14 -475 -80 -77
-37 -95 -37 -161 -3 -71 36 -112 43 -171 32 -77 -14 -192 -75 -401 -215 -104
-69 -235 -148 -291 -175 -81 -39 -112 -61 -162 -113 -34 -35 -62 -71 -62 -78
0 -8 -29 -47 -65 -86 -35 -40 -80 -96 -98 -125 -47 -73 -84 -101 -167 -126
-128 -39 -182 -118 -221 -326 -62 -327 -77 -373 -198 -594 l-82 -150 11 -468
c5 -257 10 -599 10 -760 l0 -291 89 -4 c109 -4 118 -10 162 -121 53 -133 78
-178 139 -242 65 -68 80 -93 80 -129 0 -60 88 -243 163 -339 16 -21 50 -48 76
-60 43 -21 49 -29 104 -139 45 -92 73 -133 129 -193 84 -90 243 -225 313 -266
48 -28 54 -30 135 -24 83 6 87 5 159 -30 41 -20 117 -61 168 -91 52 -30 127
-71 166 -90 82 -40 117 -41 201 -4 56 25 102 23 186 -9 68 -25 135 -26 403 -5
136 11 250 14 348 10 181 -8 233 6 370 95 l92 61 81 -80 c45 -44 92 -85 105
-92 62 -32 232 42 489 214 86 57 208 132 271 166 183 98 245 159 257 252 7 54
24 78 55 78 38 0 79 30 112 83 44 69 86 103 150 122 69 20 119 55 155 107 48
69 61 112 92 292 45 264 78 355 206 566 l64 105 -10 230 c-6 127 -13 470 -17
763 l-6 532 -59 0 c-72 0 -115 17 -151 59 -43 52 -50 97 -42 288 5 118 4 182
-4 206 -14 40 -52 78 -104 102 -78 36 -183 185 -255 362 -15 38 -149 168 -252
246 -76 56 -151 96 -182 97 -9 0 -26 13 -38 30 -41 58 -163 112 -280 123 -54
6 -96 22 -250 97 -325 157 -616 233 -710 185 -25 -13 -33 -13 -72 1 -44 17
-257 32 -270 19z m287 -299 c83 -9 185 -23 228 -31 152 -30 453 -149 534 -211
33 -25 43 -57 23 -69 -6 -4 -118 30 -248 74 -324 110 -538 163 -655 160 -36 0
-30 -2 263 -89 96 -28 231 -74 300 -101 265 -104 326 -165 261 -259 -31 -44
-19 -47 -356 75 -139 49 -245 78 -245 66 0 -9 105 -58 245 -116 191 -79 261
-127 307 -213 16 -30 19 -31 75 -29 73 3 115 -21 294 -165 140 -113 197 -153
205 -145 12 12 -23 52 -195 217 -200 191 -198 187 -118 230 83 44 142 12 382
-204 83 -75 153 -136 158 -136 26 0 -21 58 -195 238 -184 189 -213 232 -157
232 54 0 372 -315 500 -495 153 -215 343 -624 403 -865 35 -143 46 -242 53
-470 9 -299 -15 -534 -77 -755 -99 -351 -227 -564 -284 -472 -11 18 -9 25 117
377 123 344 133 703 31 1205 -40 196 -103 381 -89 260 16 -143 26 -340 32
-611 7 -351 -2 -440 -72 -719 -42 -166 -109 -365 -141 -412 -35 -54 -74 -36
-74 34 0 28 15 83 41 151 80 205 127 358 143 457 24 158 38 323 34 410 -3 75
-4 78 -16 50 -7 -16 -20 -92 -28 -168 -8 -77 -21 -172 -30 -211 -59 -265 -178
-589 -238 -645 -21 -19 -23 -20 -45 -5 -20 14 -22 22 -17 56 4 21 24 78 45
126 81 180 141 426 148 602 4 103 3 113 -11 97 -8 -10 -31 -89 -51 -174 -43
-179 -83 -303 -149 -459 -55 -131 -86 -174 -113 -158 -29 18 -27 49 12 136
125 282 173 523 146 730 -52 388 -182 759 -310 883 -23 21 -41 35 -41 31 0 -5
15 -34 34 -65 69 -113 128 -296 167 -516 26 -151 37 -469 20 -600 -26 -198
-98 -428 -151 -485 -30 -32 -37 -35 -60 -20 -13 8 -13 15 3 57 121 315 131
368 124 648 -11 443 -87 669 -306 905 l-52 55 59 -120 c113 -229 167 -409 192
-635 15 -132 8 -356 -14 -477 -29 -157 -84 -311 -124 -346 -51 -46 -56 30 -12
183 47 163 61 253 61 395 0 136 -16 245 -52 356 -21 66 -120 282 -126 275 -2
-2 12 -64 31 -137 84 -321 87 -487 14 -789 -31 -131 -58 -197 -84 -207 -41
-15 -40 70 2 209 13 44 29 126 35 183 28 235 -41 537 -172 757 -39 67 -172
218 -190 218 -5 0 6 -21 25 -47 160 -228 271 -623 237 -850 -12 -80 -78 -333
-89 -344 -4 -4 -45 -1 -92 7 -47 8 -91 12 -98 9 -8 -3 -11 -22 -10 -53 3 -65
-30 -116 -115 -178 -213 -158 -542 -244 -773 -203 -136 24 -305 97 -424 184
-36 27 -105 87 -154 134 l-88 86 28 -54 c78 -147 354 -342 564 -398 86 -23
305 -22 407 0 194 44 335 112 498 242 66 52 123 95 127 95 24 0 0 -38 -59 -97
-95 -93 -257 -211 -382 -278 -106 -56 -106 -56 -57 -51 110 13 304 113 464
239 48 38 100 75 116 84 60 31 113 -16 83 -73 -43 -81 -178 -209 -328 -310
-100 -68 -120 -84 -99 -84 38 0 248 135 377 243 94 80 164 119 192 110 27 -10
41 -25 39 -41 -3 -16 13 -26 85 -58 52 -23 64 -56 37 -101 -26 -45 -26 -46 13
-23 38 24 94 26 125 4 78 -55 -51 -199 -378 -422 -129 -87 -170 -121 -150
-121 22 -1 149 70 263 145 91 61 155 110 302 234 33 27 70 50 82 50 20 0 147
-93 185 -137 17 -18 15 -22 -46 -99 -157 -198 -433 -410 -728 -560 -81 -41
-153 -74 -161 -74 -8 0 -38 44 -67 98 -105 193 -149 256 -166 239 -17 -17 -23
-117 -24 -379 l0 -287 -52 -15 c-166 -47 -572 -71 -784 -47 -205 24 -550 125
-725 212 -104 53 -135 83 -124 120 10 30 52 22 173 -35 53 -24 129 -55 167
-69 208 -73 537 -140 596 -122 18 6 -16 19 -136 52 -369 101 -663 217 -718
282 -21 25 -25 38 -20 69 11 78 50 85 188 35 191 -70 324 -113 365 -118 43 -6
44 -6 25 11 -11 9 -97 54 -192 100 -197 95 -286 151 -315 200 -20 34 -55 51
-83 40 -44 -16 -172 62 -345 211 -175 151 -181 156 -186 151 -18 -18 230 -286
341 -369 79 -59 84 -87 22 -123 -24 -14 -55 -26 -68 -26 -61 1 -146 62 -354
253 -152 139 -155 142 -155 130 0 -21 104 -147 233 -281 129 -135 170 -193
151 -212 -25 -25 -173 87 -321 244 -273 288 -516 735 -593 1086 -35 158 -45
295 -45 610 0 317 8 410 46 556 51 195 190 524 241 572 26 24 58 21 58 -5 0
-8 -30 -92 -66 -186 -124 -322 -158 -505 -158 -832 0 -357 48 -603 183 -934
56 -136 120 -263 121 -239 0 9 -20 81 -45 159 -97 308 -138 594 -139 969 -1
229 1 266 22 360 38 180 99 363 158 482 26 51 80 118 96 118 19 0 0 -60 -92
-280 -42 -100 -85 -271 -106 -416 -26 -187 -9 -591 26 -628 12 -12 19 52 30
309 14 348 57 537 172 772 70 142 138 218 138 154 0 -9 -29 -99 -65 -199 -35
-99 -74 -225 -85 -279 -28 -128 -38 -410 -20 -561 23 -204 90 -415 177 -564
67 -114 70 -81 9 92 -54 153 -72 260 -87 499 -18 310 7 495 101 734 48 123 95
207 115 207 22 0 18 -31 -15 -115 -45 -114 -96 -289 -121 -416 -31 -159 -32
-382 -1 -525 42 -195 112 -364 244 -591 59 -101 99 -153 79 -102 -5 13 -30 69
-56 124 -72 152 -112 263 -144 393 -78 321 -66 612 39 907 57 160 113 254 143
242 27 -10 21 -64 -22 -200 -56 -175 -72 -270 -78 -449 -9 -244 21 -422 106
-638 43 -110 138 -281 161 -288 21 -7 7 41 -49 175 -153 364 -169 736 -51
1124 35 114 65 163 103 167 24 3 27 0 27 -29 0 -17 -14 -75 -30 -127 -17 -52
-40 -147 -51 -211 -20 -117 -38 -391 -25 -391 16 0 36 76 56 211 26 180 52
277 98 371 41 80 78 112 109 92 27 -17 21 -64 -26 -194 -52 -148 -64 -248 -51
-432 22 -303 87 -458 289 -685 83 -94 108 -116 75 -65 -119 182 -214 370 -245
488 -30 112 -38 372 -15 503 19 110 57 224 83 253 16 18 26 19 112 13 l93 -7
-5 38 c-6 54 15 94 84 159 70 64 152 114 264 160 314 130 641 101 933 -82 48
-30 106 -70 130 -90 23 -19 42 -30 42 -25 0 17 -155 160 -218 200 -337 218
-820 181 -1137 -87 -170 -144 -175 -147 -175 -112 0 47 154 182 343 300 64 40
122 79 129 88 11 14 9 15 -22 8 -90 -18 -281 -122 -394 -214 -154 -125 -161
-129 -203 -89 -30 28 -29 45 5 99 46 71 112 138 231 234 62 49 107 91 101 93
-25 9 -223 -121 -354 -232 -104 -89 -181 -111 -174 -50 3 21 -3 27 -34 39 -21
7 -49 20 -63 29 -32 21 -65 74 -58 92 4 11 -7 14 -49 14 -91 0 -101 34 -37
129 49 73 112 131 285 261 138 103 164 127 120 110 -78 -29 -203 -112 -330
-219 -150 -126 -197 -161 -216 -161 -15 0 -90 52 -197 137 -14 10 -9 21 36 81
104 141 358 354 602 505 92 57 296 150 314 143 7 -2 37 -49 65 -103 61 -113
138 -233 150 -233 16 0 21 63 27 373 7 360 -6 316 98 336 73 15 632 5 810 -13z
m-1209 -202 c45 -77 25 -97 -216 -224 -262 -138 -352 -203 -596 -426 -82 -74
-160 -141 -173 -147 -21 -10 -27 -8 -52 21 -50 56 -44 67 120 235 232 238 528
457 749 553 42 19 91 34 109 34 28 0 36 -6 59 -46z m2748 -3619 c15 -13 26
-35 26 -49 0 -71 -355 -410 -599 -573 -138 -92 -386 -213 -435 -213 -16 0 -80
145 -73 164 3 6 65 38 138 71 240 107 459 254 694 465 119 107 188 160 210
160 7 0 24 -11 39 -25z"/>
<path d="M2560 4343 c-151 -17 -391 -70 -362 -80 7 -3 59 0 115 7 197 23 565
13 762 -21 217 -37 579 -193 758 -327 116 -88 127 -89 41 -6 -232 224 -540
370 -886 419 -94 13 -339 18 -428 8z"/>
<path d="M4076 4089 c16 -20 64 -76 108 -125 156 -178 316 -451 402 -689 20
-55 58 -185 85 -289 27 -104 54 -196 59 -205 28 -48 -14 266 -59 441 -29 114
-95 273 -149 360 -85 140 -135 200 -306 373 -92 93 -155 154 -140 134z"/>
<path d="M2640 4103 c-91 -7 -237 -33 -270 -48 l-35 -16 45 5 c25 3 133 19
240 35 181 27 189 37 20 24z"/>
<path d="M2960 4070 c0 -5 16 -10 35 -10 19 0 35 5 35 10 0 6 -16 10 -35 10
-19 0 -35 -4 -35 -10z"/>
<path d="M2596 3975 c-54 -8 -100 -16 -103 -19 -7 -7 57 -14 282 -31 412 -31
601 -89 800 -246 98 -77 124 -94 132 -85 16 16 -99 136 -187 196 -117 79 -256
136 -418 170 -129 27 -370 35 -506 15z"/>
<path d="M2312 3921 c-18 -11 24 -19 58 -11 22 5 23 7 7 13 -25 9 -49 9 -65
-2z"/>
<path d="M2618 3419 c-136 -20 -363 -150 -459 -264 l-34 -40 50 38 c270 203
575 263 864 172 97 -31 175 -78 276 -165 43 -38 81 -67 83 -65 10 9 -62 105
-116 157 -75 71 -128 101 -235 132 -74 22 -312 51 -362 45 -5 -1 -36 -5 -67
-10z"/>
<path d="M3090 3153 c0 -5 34 -46 76 -93 153 -172 185 -237 192 -395 7 -163
-44 -332 -147 -483 -38 -56 -49 -82 -36 -82 41 0 151 113 195 199 53 107 73
198 74 351 0 117 -2 141 -20 180 -46 98 -335 378 -334 323z"/>
<path d="M2350 3110 c-164 -109 -250 -271 -250 -471 0 -171 58 -318 170 -429
63 -64 178 -136 203 -127 6 2 -20 26 -58 54 -149 108 -217 264 -218 498 -1
202 47 331 160 435 35 31 63 60 63 64 0 14 -27 4 -70 -24z"/>
<path d="M2705 3100 c-112 -18 -199 -64 -273 -144 -82 -90 -122 -199 -122
-331 0 -188 98 -346 265 -425 96 -46 167 -56 262 -36 290 59 453 299 388 574
-58 245 -280 400 -520 362z"/>
<path d="M1956 3021 c-70 -76 -89 -126 -94 -248 -3 -78 1 -127 18 -210 12 -59
25 -114 30 -122 4 -7 10 69 13 170 6 202 24 313 63 392 14 27 24 53 22 59 -2
5 -25 -13 -52 -41z"/>
<path d="M3560 2935 c0 -11 7 -41 15 -67 7 -26 17 -85 21 -130 6 -86 -9 -315
-27 -400 -17 -76 -6 -76 34 -1 46 89 67 175 67 283 0 121 -35 239 -94 315
l-15 20 -1 -20z"/>
<path d="M840 2180 c0 -77 92 -349 166 -491 57 -107 367 -479 428 -511 20 -11
20 -10 6 8 -8 10 -52 60 -97 111 -210 235 -382 529 -453 775 -39 134 -49 157
-50 108z"/>
<path d="M3338 2104 c-206 -177 -517 -245 -795 -173 -105 26 -191 68 -291 141
-46 33 -86 58 -89 55 -9 -10 35 -63 95 -117 72 -65 208 -133 308 -155 60 -14
105 -16 208 -12 156 6 217 22 353 87 85 41 117 64 190 135 95 91 107 113 21
39z"/>
<path d="M2556 2061 c-3 -5 2 -11 12 -13 25 -6 53 2 47 13 -8 12 -52 12 -59 0z"/>
<path d="M1812 1673 c124 -161 321 -284 573 -359 151 -44 508 -46 683 -2 23 6
40 13 38 16 -3 2 -121 8 -263 13 -274 8 -388 23 -528 66 -113 35 -273 121
-390 209 -172 130 -166 127 -113 57z"/>
<path d="M1635 1365 c190 -172 530 -354 784 -418 77 -19 111 -22 331 -21 175
0 281 5 372 18 127 17 273 48 285 60 18 18 -28 17 -250 -2 -133 -12 -291 -22
-352 -22 -346 0 -824 157 -1145 377 -62 42 -63 43 -25 8z"/>
<path d="M3155 1229 c-22 -5 -183 -13 -358 -18 -175 -5 -321 -12 -324 -15 -16
-16 53 -21 267 -20 254 0 400 14 464 44 34 15 37 18 16 18 -14 0 -43 -4 -65
-9z"/>
<path d="M2692 301 c-19 -12 24 -22 57 -14 23 6 24 7 6 14 -27 10 -47 10 -63
0z"/>
<path d="M8001 3639 c-72 -14 -77 -24 -63 -123 15 -106 84 -359 124 -455 40
-96 58 -104 218 -99 129 3 182 23 188 68 2 13 -36 158 -84 322 l-89 298 -125
-1 c-69 -1 -145 -5 -169 -10z"/>
<path d="M9212 3639 c-29 -5 -62 -14 -72 -19 -26 -14 -79 -155 -261 -700 -162
-488 -318 -984 -360 -1147 -21 -84 -22 -94 -8 -108 21 -22 120 -35 261 -35
l116 0 62 193 c170 531 342 1063 347 1067 16 16 105 -223 283 -760 l158 -475
198 0 198 0 69 220 c322 1036 455 1481 492 1649 l18 80 -23 18 c-19 15 -41 18
-154 17 -72 0 -148 -3 -170 -7 l-38 -7 -43 -140 c-24 -77 -85 -275 -135 -440
-161 -527 -211 -671 -224 -653 -14 20 -112 303 -278 808 -113 343 -137 407
-159 423 -31 22 -191 32 -277 16z"/>
<path d="M20362 3493 c2 -92 8 -166 15 -178 6 -12 43 -33 85 -49 136 -53 230
-126 315 -244 25 -34 57 -69 72 -77 65 -33 291 -26 332 11 28 25 24 70 -16
153 -102 213 -279 387 -476 469 -72 30 -250 72 -304 72 l-27 0 4 -157z"/>
<path d="M36117 3348 c-125 -168 -262 -343 -305 -388 l-78 -83 -60 74 c-33 41
-165 209 -292 375 l-232 301 -46 7 c-72 9 -280 7 -308 -4 -18 -6 -26 -17 -26
-33 0 -51 239 -402 559 -822 234 -307 380 -475 413 -475 40 0 177 150 423 463
133 170 140 177 146 150 4 -15 10 -233 13 -483 6 -475 18 -695 39 -739 8 -16
27 -31 52 -39 56 -19 212 -20 250 -1 l30 14 8 165 c12 243 3 1739 -11 1771
-14 35 -33 39 -202 46 l-145 6 -228 -305z"/>
<path d="M42868 3640 c-173 -13 -209 -43 -207 -172 0 -95 16 -129 69 -155 68
-34 188 -43 652 -51 l418 -7 45 -50 c24 -28 58 -77 75 -109 70 -137 17 -280
-125 -337 -20 -8 -184 -16 -515 -24 -532 -13 -550 -15 -582 -71 -30 -52 -41
-225 -34 -544 7 -348 15 -415 55 -451 47 -44 175 -50 277 -13 61 22 65 45 71
402 l5 302 237 0 236 -1 124 -197 c298 -471 332 -515 416 -528 104 -15 264 16
285 57 27 50 5 92 -237 455 -97 145 -174 266 -172 268 2 1 35 20 74 41 136 75
221 179 271 332 26 78 29 102 29 213 0 103 -4 138 -23 200 -44 139 -127 251
-242 329 -136 90 -265 111 -740 116 -195 2 -403 0 -462 -5z"/>
<path d="M11813 3620 c-118 -31 -246 -101 -361 -199 -130 -109 -261 -320 -302
-485 -65 -260 -40 -558 64 -764 123 -241 330 -423 580 -508 130 -45 210 -27
236 52 14 42 15 190 1 225 -14 36 -50 65 -106 83 -128 41 -301 190 -359 308
-41 83 -59 200 -52 338 10 210 48 303 175 431 69 69 102 93 166 123 44 21 96
45 115 54 58 28 71 68 68 200 -3 111 -4 114 -31 138 -35 30 -91 31 -194 4z"/>
<path d="M12245 3617 c-21 -18 -28 -35 -35 -92 -10 -83 0 -173 23 -208 10 -16
61 -47 132 -82 239 -117 338 -250 367 -496 30 -255 -52 -485 -216 -606 -33
-25 -106 -67 -161 -93 -55 -26 -108 -56 -118 -68 -34 -38 -42 -191 -15 -280
12 -41 33 -52 103 -52 140 0 372 119 519 266 302 302 380 791 190 1193 -56
119 -112 197 -210 292 -125 119 -251 194 -392 230 -102 26 -154 25 -187 -4z"/>
<path d="M14302 3614 c-303 -89 -563 -359 -641 -666 -44 -172 -51 -430 -17
-590 32 -147 131 -312 271 -454 143 -144 274 -222 425 -251 99 -20 148 -11
168 29 9 20 36 290 28 294 0 0 -64 31 -140 69 -123 60 -148 77 -216 144 -130
128 -174 244 -173 446 2 234 71 391 224 507 30 23 109 68 177 100 l122 60 0
128 c0 134 -10 184 -40 200 -30 16 -100 10 -188 -16z"/>
<path d="M14761 3623 c-28 -24 -45 -117 -38 -217 7 -98 14 -106 157 -177 183
-91 308 -240 355 -424 43 -168 0 -403 -99 -548 -57 -83 -139 -147 -272 -213
-77 -38 -115 -62 -125 -81 -15 -29 -19 -209 -6 -274 17 -81 121 -79 304 7 288
134 487 372 570 682 23 86 27 116 27 262 0 137 -4 180 -22 253 -33 131 -73
226 -137 322 -131 198 -318 342 -519 399 -104 31 -165 33 -195 9z"/>
<path d="M16338 3633 l-88 -4 0 -169 0 -169 33 -5 c17 -3 147 -8 287 -11 499
-11 680 -29 771 -76 103 -52 206 -198 250 -354 33 -114 33 -306 0 -420 -29
-105 -72 -183 -137 -250 -123 -128 -255 -152 -950 -171 l-251 -7 -7 -60 c-8
-75 -8 -225 0 -254 13 -48 107 -55 579 -43 477 12 538 22 686 110 339 201 528
552 506 940 -16 267 -128 532 -297 702 -77 76 -101 93 -201 142 -207 100 -201
100 -679 101 -228 1 -454 0 -502 -2z"/>
<path d="M19997 3625 c-189 -47 -389 -190 -502 -359 -91 -137 -140 -277 -166
-471 -16 -123 -6 -377 19 -470 73 -270 256 -497 498 -618 126 -63 253 -83 290
-45 18 17 38 175 32 247 -6 65 -18 77 -134 141 -238 130 -353 368 -323 664 24
233 114 376 312 498 54 34 105 71 114 85 25 37 39 182 24 248 -19 83 -63 104
-164 80z"/>
<path d="M23148 3633 c-26 -4 -26 -6 -32 -96 -3 -51 -8 -236 -11 -412 -12
-625 -29 -826 -80 -931 -30 -61 -62 -88 -178 -154 -118 -66 -122 -74 -121
-228 0 -89 5 -136 15 -157 14 -29 17 -30 79 -29 135 2 344 125 488 288 101
113 161 284 182 513 6 65 13 285 16 488 7 417 -4 678 -31 704 -13 13 -43 16
-158 17 -78 1 -154 0 -169 -3z"/>
<path d="M24744 3633 l-82 -4 -6 -657 c-3 -361 -8 -812 -10 -1000 l-3 -344
106 6 c58 4 140 9 182 12 l76 6 6 586 c4 322 7 685 7 808 l0 222 273 4 c290 4
318 9 362 58 17 18 21 39 23 129 4 126 -8 151 -82 170 -42 10 -628 13 -852 4z"/>
<path d="M27606 3624 c-78 -19 -213 -83 -289 -138 -143 -101 -281 -273 -347
-431 -109 -263 -100 -637 21 -878 121 -239 338 -430 583 -513 130 -45 210 -27
236 52 14 42 15 190 1 225 -14 36 -50 65 -107 83 -114 37 -264 157 -339 269
-54 82 -70 157 -69 332 0 242 35 337 173 476 69 69 102 93 166 123 44 21 96
45 115 54 58 28 71 68 68 200 -3 111 -4 114 -31 138 -33 28 -87 31 -181 8z"/>
<path d="M28025 3617 c-21 -18 -28 -35 -35 -93 -12 -93 2 -189 31 -220 12 -13
58 -37 101 -54 136 -51 214 -114 293 -233 140 -212 136 -568 -10 -772 -58 -82
-138 -142 -270 -205 -55 -26 -108 -56 -118 -67 -49 -56 -39 -295 13 -323 57
-30 219 5 350 77 310 169 492 444 531 803 27 249 -44 527 -185 724 -50 70
-180 198 -246 243 -118 80 -288 143 -386 143 -30 0 -51 -7 -69 -23z"/>
<path d="M32244 3633 l-82 -4 -6 -202 c-3 -111 -8 -561 -11 -1000 l-6 -799
108 6 c59 4 140 9 179 12 l71 5 6 136 c4 75 7 276 7 448 0 171 3 474 7 672 l6
361 266 4 c291 5 328 11 365 61 25 34 35 167 17 228 -22 74 -24 74 -461 75
-212 0 -422 -1 -466 -3z"/>
<path d="M37481 3628 c-41 -21 -59 -66 -72 -178 -13 -119 -6 -329 14 -400 11
-39 19 -48 61 -69 40 -20 65 -25 130 -25 107 -1 155 21 174 79 17 50 18 573 1
590 -16 16 -279 19 -308 3z"/>
<path d="M38533 3633 l-143 -4 0 -168 0 -168 38 -7 c20 -3 156 -6 302 -7 146
-1 368 -4 493 -8 l228 -6 -92 -110 c-182 -218 -206 -267 -156 -312 35 -33 91
-43 237 -42 l135 0 120 146 c297 362 315 392 315 531 0 116 -13 133 -112 151
-60 10 -943 13 -1365 4z"/>
<path d="M40644 3630 c-29 -4 -57 -10 -62 -14 -18 -11 -35 -117 -28 -182 9
-86 24 -123 55 -137 29 -13 1268 -24 1399 -12 l72 7 0 167 0 168 -197 6 c-259
9 -1174 7 -1239 -3z"/>
<path d="M21760 2925 l0 -705 66 -120 c148 -265 294 -393 543 -475 l85 -28 27
31 c37 41 49 89 49 193 0 109 -13 129 -137 219 -123 88 -149 114 -184 185 -57
117 -72 271 -89 926 -5 217 -10 414 -10 437 l0 42 -175 0 -175 0 0 -705z"/>
<path d="M23996 3593 c-3 -21 -6 -91 -6 -155 0 -171 -14 -163 270 -159 80 1
153 5 163 7 15 5 17 22 17 175 l0 169 -219 0 -218 0 -7 -37z"/>
<path d="M29506 3569 c-3 -34 -6 -95 -6 -136 0 -68 2 -77 28 -103 16 -15 46
-33 68 -40 25 -7 191 -15 454 -21 228 -5 443 -13 478 -18 94 -14 136 -47 181
-141 21 -46 26 -69 26 -141 0 -76 -3 -92 -30 -144 -37 -72 -94 -119 -167 -135
-33 -7 -219 -15 -488 -20 -278 -6 -450 -13 -477 -21 -36 -10 -45 -17 -54 -48
-17 -50 -24 -725 -10 -834 13 -99 24 -110 118 -127 85 -14 174 -5 209 23 53
41 58 69 64 357 l5 265 220 7 c507 17 582 29 717 118 174 114 274 295 285 516
9 169 -26 302 -114 436 -54 82 -108 131 -232 209 l-95 59 -587 0 -586 0 -7
-61z"/>
<path d="M31486 3512 c-9 -148 -1 -198 31 -220 21 -13 54 -15 207 -14 99 2
189 5 199 8 15 5 17 22 17 175 l0 169 -224 0 -223 0 -7 -118z"/>
<path d="M33697 3508 c-4 -66 -7 -205 -7 -308 0 -166 2 -190 18 -210 23 -28
77 -35 226 -25 l116 7 0 329 0 329 -173 0 -174 0 -6 -122z"/>
<path d="M37475 2822 c-43 -10 -55 -44 -67 -195 -11 -148 -4 -712 12 -847 11
-100 28 -122 110 -139 107 -23 208 -6 244 42 21 28 21 37 24 567 3 485 1 539
-13 554 -13 12 -36 16 -98 16 -45 0 -104 2 -132 4 -27 3 -63 2 -80 -2z"/>
<path d="M40630 2811 c-20 -4 -41 -10 -47 -14 -20 -12 -36 -117 -29 -185 9
-88 27 -127 62 -137 40 -11 928 -18 1152 -10 l182 7 0 168 0 167 -82 6 c-110
9 -1193 7 -1238 -2z"/>
<path d="M33695 2498 c-10 -437 -4 -823 13 -840 16 -16 163 -23 268 -13 l74 7
0 579 0 579 -174 0 -174 0 -7 -312z"/>
<path d="M38833 2473 c-37 -7 -273 -269 -396 -439 -80 -111 -109 -212 -87
-304 22 -92 -46 -85 852 -84 433 0 790 3 793 6 3 3 8 57 12 121 8 161 -6 189
-117 220 -19 5 -247 12 -507 16 l-471 6 94 110 c153 178 194 249 166 291 -30
46 -227 79 -339 57z"/>
<path d="M20888 2350 c-48 -9 -71 -29 -110 -99 -39 -68 -126 -157 -190 -194
-27 -15 -78 -35 -114 -44 -91 -22 -98 -36 -103 -185 -6 -201 6 -219 123 -197
301 54 567 271 679 551 33 81 33 100 5 132 -36 40 -179 58 -290 36z"/>
<path d="M34814 2313 l-42 -4 -7 -197 c-9 -222 -2 -380 17 -419 19 -38 76 -56
185 -57 106 -1 134 12 168 80 18 35 20 62 22 249 2 178 0 217 -15 259 -27 78
-53 91 -180 92 -59 1 -126 -1 -148 -3z"/>
<path d="M40760 1999 c-80 -3 -155 -11 -167 -17 -37 -20 -53 -129 -33 -233 16
-83 23 -87 190 -100 170 -14 1051 -18 1193 -5 144 12 142 9 141 191 -1 81 -5
150 -10 155 -11 10 -1107 17 -1314 9z"/>
</g>
</svg>
